<?xml version="1.0" standalone="no"?><!DOCTYPE svg PUBLIC "-//W3C//DTD SVG 1.1//EN" "http://www.w3.org/Graphics/SVG/1.1/DTD/svg11.dtd"><svg t="1743412655944" class="icon" viewBox="0 0 1024 1024" version="1.1" xmlns="http://www.w3.org/2000/svg" p-id="7197" xmlns:xlink="http://www.w3.org/1999/xlink" width="200" height="200"><path d="M728.235236 1023.943111c-163.043556 0-295.708444-129.194667-295.708445-287.971555 0-158.833778 132.664889-287.971556 295.708445-287.971556 163.043556 0 295.708444 129.137778 295.708444 287.971556 0 158.776889-132.664889 287.971556-295.708444 287.971555z m0-501.987555c-121.344 0-220.103111 96.028444-220.103112 214.016s98.759111 213.959111 220.103112 213.959111 220.103111-95.971556 220.103111-213.959111-98.759111-214.016-220.103111-214.016z m105.642666 296.96h-184.604444v-181.646223c0-21.048889 17.351111-38.229333 38.684444-38.229333 21.390222 0 38.741333 17.180444 38.741334 38.229333v105.301334h107.178666c21.390222 0 38.741333 17.066667 38.741334 38.172444 0 21.048889-17.351111 38.172444-38.741334 38.172445z m-614.4-336.611556h254.577778a360.561778 360.561778 0 0 0-60.984889 81.635556H219.477902a41.073778 41.073778 0 0 1-41.358222-40.789334c0-22.471111 18.545778-40.846222 41.358222-40.846222z m0 256.910222a41.187556 41.187556 0 0 1-41.358222-40.846222c0-22.528 18.545778-40.846222 41.358222-40.846222h158.549334a359.594667 359.594667 0 0 0-8.874667 78.449778c0 1.080889 0.170667 2.104889 0.227555 3.242666H219.477902z m515.470222-416.199111h-103.424c-71.395556 0-141.539556-69.063111-141.539555-139.377778 0 0-0.512-34.702222-0.056889-101.489777H119.23968c-32.995556 0-36.579556 40.334222-36.579556 57.685333v700.871111c0 17.351111 3.584 57.742222 36.579556 57.742222h289.109333a357.432889 357.432889 0 0 0 57.116445 81.635556H127.886791a128.284444 128.284444 0 0 1-127.943111-128.398222V128.910222A128.284444 128.284444 0 0 1 127.886791 0.512h382.293333a2303.431111 2303.431111 0 0 1 72.590223-0.056889l7.736889 0.056889 2.332444 2.503111 224.881778 243.256889v3.128889c0 30.151111 0.170667 42.780444 0.284444 50.688l0.056889 88.576a359.822222 359.822222 0 0 0-83.114667-11.491556v-54.158222z m-162.247111-227.953778v88.576c0 27.534222 15.132444 57.173333 57.571556 57.799111h72.590222l-130.161778-146.375111z" fill="#f4ea2a" p-id="7198"></path></svg>