<?xml version="1.0" standalone="no"?><!DOCTYPE svg PUBLIC "-//W3C//DTD SVG 1.1//EN" "http://www.w3.org/Graphics/SVG/1.1/DTD/svg11.dtd"><svg t="1741011965378" class="icon" viewBox="0 0 1024 1024" version="1.1" xmlns="http://www.w3.org/2000/svg" p-id="7145" xmlns:xlink="http://www.w3.org/1999/xlink" width="200" height="200"><path d="M879.9 417.1L777.5 246.4c-5.7-9.6-16.2-15.5-27.4-15.5H275.9c-2.1 0-4.2 0.2-6.2 0.6-0.7 0.1-1.3 0.3-2 0.5-1.3 0.3-2.6 0.8-3.9 1.3-6.4 2.6-11.8 7.3-15.3 13.1L146.1 417.1c-6.9 11.5-5.8 26.3 2.7 36.7l339.5 415c6.1 7.5 15.1 11.7 24.7 11.7s18.6-4.3 24.7-11.7l339.5-415c8.6-10.5 9.6-25.2 2.7-36.7z m-33.5 16L513 840.6 179.6 433.1l99.1-165.2h468.5l99.2 165.2z" fill="#4E30DC" p-id="7146"></path><path d="M513 886c-11.3 0-21.9-5-29-13.8l-339.5-415c-10-12.2-11.2-29.5-3.1-43l102.4-170.7c4.1-6.9 10.5-12.4 18-15.4 1.5-0.6 3-1.1 4.5-1.5 0.8-0.2 1.6-0.4 2.4-0.5 2.4-0.5 4.8-0.7 7.3-0.7h474.2c13.1 0 25.4 7 32.1 18.2l102.4 170.7c8.1 13.5 6.9 30.8-3.1 43L542 872.2c-7.1 8.8-17.7 13.8-29 13.8zM275.9 236.4c-1.7 0-3.5 0.2-5.1 0.5-0.6 0.1-1.1 0.2-1.7 0.4-1.1 0.3-2.2 0.7-3.2 1.1-5.3 2.1-9.8 6-12.7 10.9L150.8 419.9c-5.7 9.6-4.8 21.8 2.2 30.4l339.5 415c5 6.2 12.5 9.7 20.5 9.7s15.4-3.5 20.5-9.7l339.5-415c7.1-8.6 7.9-20.8 2.2-30.4L772.8 249.2c-4.8-7.9-13.5-12.8-22.7-12.8H275.9zM513 849.3L172.9 433.6l102.7-171.2h474.8l102.7 171.2-2.5 3L513 849.3zM186.3 432.6L513 831.9l326.7-399.3-95.6-159.2H281.9l-95.6 159.2z" fill="#4E30DC" p-id="7147"></path><path d="M713 405.7c-0.6-6.4-3.7-12.1-8.7-16.2-10.2-8.4-25.4-6.9-33.8 3.3L505.5 594l-165-201.2c-8.4-10.2-23.5-11.7-33.8-3.3-5 4.1-8 9.8-8.7 16.2-0.6 6.4 1.3 12.6 5.3 17.6l183.1 223.3c4.1 5 9.8 8 16.2 8.7 0.9 0.1 1.9 0.2 2.8 0.1h0.4c0.8 0 1.6 0 2.4-0.1 6.4-0.6 12.1-3.7 16.2-8.7l183.1-223.3c4.3-5 6.2-11.3 5.5-17.6z" fill="#FF4E7D" p-id="7148"></path></svg>